HIERARCHY
ROOT Hips
{
  OFFSET 0.000 78.838 0.000
  CHANNELS 6 Xposition Yposition Zposition Zrotation Xrotation Yrotation
  JOINT LeftUpLeg
  {
    OFFSET 4.160 0.494 2.402
    CHANNELS 6 Xposition Yposition Zposition Zrotation Xrotation Yrotation
    JOINT LeftLeg
    {
      OFFSET 0.000 -41.867 0.000
      CHANNELS 6 Xposition Yposition Zposition Zrotation Xrotation Yrotation
      JOINT LeftFoot
      {
        OFFSET 0.000 -37.465 0.000
        CHANNELS 6 Xposition Yposition Zposition Zrotation Xrotation Yrotation
        End Site
        {
          OFFSET 0.000 0.000 12.100
        }
      }
    }
  }
  JOINT RightUpLeg
  {
    OFFSET -4.160 0.494 2.402
    CHANNELS 6 Xposition Yposition Zposition Zrotation Xrotation Yrotation
    JOINT RightLeg
    {
      OFFSET 0.000 -41.867 0.000
      CHANNELS 6 Xposition Yposition Zposition Zrotation Xrotation Yrotation
      JOINT RightFoot
      {
        OFFSET 0.000 -37.465 0.000
        CHANNELS 6 Xposition Yposition Zposition Zrotation Xrotation Yrotation
        End Site
        {
          OFFSET 0.000 0.000 12.100
        }
      }
    }
  }
  JOINT Spine
  {
    OFFSET 0.000 34.300 0.000
    CHANNELS 6 Xposition Yposition Zposition Zrotation Xrotation Yrotation
    JOINT Spine1
    {
      OFFSET 0.000 25.000 0.000
      CHANNELS 6 Xposition Yposition Zposition Zrotation Xrotation Yrotation
      JOINT LeftShoulder
      {
        OFFSET 1.800 -0.600 0.200
        CHANNELS 6 Xposition Yposition Zposition Zrotation Xrotation Yrotation
        JOINT LeftArm
        {
          OFFSET 12.295 0.000 0.000
          CHANNELS 6 Xposition Yposition Zposition Zrotation Xrotation Yrotation
          JOINT LeftForeArm
          {
            OFFSET 25.940 0.000 0.000
            CHANNELS 6 Xposition Yposition Zposition Zrotation Xrotation Yrotation
            JOINT LeftHand
            {
              OFFSET 22.573 0.000 0.000
              CHANNELS 6 Xposition Yposition Zposition Zrotation Xrotation Yrotation
              JOINT LeftHandThumb1
              {
                OFFSET 4.877 -1.044 3.608
                CHANNELS 6 Xposition Yposition Zposition Zrotation Xrotation Yrotation
                JOINT LeftHandThumb2
                {
                  OFFSET 2.665 0.000 -0.000
                  CHANNELS 6 Xposition Yposition Zposition Zrotation Xrotation Yrotation
                  JOINT LeftHandThumb3
                  {
                    OFFSET 2.543 0.000 -0.000
                    CHANNELS 6 Xposition Yposition Zposition Zrotation Xrotation Yrotation
                    End Site
                    {
                      OFFSET 2.667 0.000 0.000
                    }
                  }
                }
              }
              JOINT LeftHandIndex1
              {
                OFFSET 9.232 -0.301 2.144
                CHANNELS 6 Xposition Yposition Zposition Zrotation Xrotation Yrotation
                JOINT LeftHandIndex2
                {
                  OFFSET 4.225 0.000 -0.000
                  CHANNELS 6 Xposition Yposition Zposition Zrotation Xrotation Yrotation
                  JOINT LeftHandIndex3
                  {
                    OFFSET 2.654 -0.000 -0.000
                    CHANNELS 6 Xposition Yposition Zposition Zrotation Xrotation Yrotation
                    End Site
                    {
                      OFFSET 1.958 0.000 0.000
                    }
                  }
                }
              }
              JOINT LeftHandMiddle1
              {
                OFFSET 8.920 0.000 0.000
                CHANNELS 6 Xposition Yposition Zposition Zrotation Xrotation Yrotation
                JOINT LeftHandMiddle2
                {
                  OFFSET 4.863 -0.000 -0.000
                  CHANNELS 6 Xposition Yposition Zposition Zrotation Xrotation Yrotation
                  JOINT LeftHandMiddle3
                  {
                    OFFSET 2.765 0.000 0.000
                    CHANNELS 6 Xposition Yposition Zposition Zrotation Xrotation Yrotation
                    End Site
                    {
                      OFFSET 2.006 0.000 0.000
                    }
                  }
                }
              }
              JOINT LeftHandRing1
              {
                OFFSET 8.689 -0.126 -2.087
                CHANNELS 6 Xposition Yposition Zposition Zrotation Xrotation Yrotation
                JOINT LeftHandRing2
                {
                  OFFSET 4.538 -0.000 0.000
                  CHANNELS 6 Xposition Yposition Zposition Zrotation Xrotation Yrotation
                  JOINT LeftHandRing3
                  {
                    OFFSET 2.305 -0.000 -0.000
                    CHANNELS 6 Xposition Yposition Zposition Zrotation Xrotation Yrotation
                    End Site
                    {
                      OFFSET 1.923 0.000 0.000
                    }
                  }
                }
              }
              JOINT LeftHandPinky1
              {
                OFFSET 8.391 -0.817 -3.758
                CHANNELS 6 Xposition Yposition Zposition Zrotation Xrotation Yrotation
                JOINT LeftHandPinky2
                {
                  OFFSET 3.044 0.000 -0.000
                  CHANNELS 6 Xposition Yposition Zposition Zrotation Xrotation Yrotation
                  JOINT LeftHandPinky3
                  {
                    OFFSET 1.975 0.000 -0.000
                    CHANNELS 6 Xposition Yposition Zposition Zrotation Xrotation Yrotation
                    End Site
                    {
                      OFFSET 1.667 -0.000 -0.000
                    }
                  }
                }
              }
            }
          }
        }
      }
      JOINT RightShoulder
      {
        OFFSET -1.800 -0.600 0.200
        CHANNELS 6 Xposition Yposition Zposition Zrotation Xrotation Yrotation
        JOINT RightArm
        {
          OFFSET -12.295 0.000 0.000
          CHANNELS 6 Xposition Yposition Zposition Zrotation Xrotation Yrotation
          JOINT RightForeArm
          {
            OFFSET -25.940 0.000 0.000
            CHANNELS 6 Xposition Yposition Zposition Zrotation Xrotation Yrotation
            JOINT RightHand
            {
              OFFSET -22.573 0.000 0.000
              CHANNELS 6 Xposition Yposition Zposition Zrotation Xrotation Yrotation
              JOINT RightHandThumb1
              {
                OFFSET -4.877 -1.044 3.608
                CHANNELS 6 Xposition Yposition Zposition Zrotation Xrotation Yrotation
                JOINT RightHandThumb2
                {
                  OFFSET -2.665 0.000 -0.000
                  CHANNELS 6 Xposition Yposition Zposition Zrotation Xrotation Yrotation
                  JOINT RightHandThumb3
                  {
                    OFFSET -2.543 -0.000 0.000
                    CHANNELS 6 Xposition Yposition Zposition Zrotation Xrotation Yrotation
                    End Site
                    {
                      OFFSET -2.667 0.000 0.000
                    }
                  }
                }
              }
              JOINT RightHandIndex1
              {
                OFFSET -9.232 -0.301 2.144
                CHANNELS 6 Xposition Yposition Zposition Zrotation Xrotation Yrotation
                JOINT RightHandIndex2
                {
                  OFFSET -4.225 0.000 -0.000
                  CHANNELS 6 Xposition Yposition Zposition Zrotation Xrotation Yrotation
                  JOINT RightHandIndex3
                  {
                    OFFSET -2.654 -0.000 -0.000
                    CHANNELS 6 Xposition Yposition Zposition Zrotation Xrotation Yrotation
                    End Site
                    {
                      OFFSET -1.958 -0.000 -0.000
                    }
                  }
                }
              }
              JOINT RightHandMiddle1
              {
                OFFSET -8.920 0.000 -0.000
                CHANNELS 6 Xposition Yposition Zposition Zrotation Xrotation Yrotation
                JOINT RightHandMiddle2
                {
                  OFFSET -4.863 0.000 0.000
                  CHANNELS 6 Xposition Yposition Zposition Zrotation Xrotation Yrotation
                  JOINT RightHandMiddle3
                  {
                    OFFSET -2.765 0.000 0.000
                    CHANNELS 6 Xposition Yposition Zposition Zrotation Xrotation Yrotation
                    End Site
                    {
                      OFFSET -2.006 0.000 0.000
                    }
                  }
                }
              }
              JOINT RightHandRing1
              {
                OFFSET -8.689 -0.126 -2.087
                CHANNELS 6 Xposition Yposition Zposition Zrotation Xrotation Yrotation
                JOINT RightHandRing2
                {
                  OFFSET -4.538 0.000 -0.000
                  CHANNELS 6 Xposition Yposition Zposition Zrotation Xrotation Yrotation
                  JOINT RightHandRing3
                  {
                    OFFSET -2.305 0.000 0.000
                    CHANNELS 6 Xposition Yposition Zposition Zrotation Xrotation Yrotation
                    End Site
                    {
                      OFFSET -1.923 0.000 -0.000
                    }
                  }
                }
              }
              JOINT RightHandPinky1
              {
                OFFSET -8.391 -0.817 -3.758
                CHANNELS 6 Xposition Yposition Zposition Zrotation Xrotation Yrotation
                JOINT RightHandPinky2
                {
                  OFFSET -3.044 0.000 -0.000
                  CHANNELS 6 Xposition Yposition Zposition Zrotation Xrotation Yrotation
                  JOINT RightHandPinky3
                  {
                    OFFSET -1.975 0.000 -0.000
                    CHANNELS 6 Xposition Yposition Zposition Zrotation Xrotation Yrotation
                    End Site
                    {
                      OFFSET -1.667 0.000 -0.000
                    }
                  }
                }
              }
            }
          }
        }
      }
      JOINT Neck
      {
        OFFSET 0.000 0.800 0.000
        CHANNELS 6 Xposition Yposition Zposition Zrotation Xrotation Yrotation
        JOINT Head
        {
          OFFSET 0.000 6.365 0.000
          CHANNELS 6 Xposition Yposition Zposition Zrotation Xrotation Yrotation
          End Site
          {
            OFFSET 0.000 13.243 0.000
          }
        }
      }
    }
  }
}
MOTION
Frames:	4
Frame Time:	0.033333
-128.48029 82.50732 -201.72005 3.35177 -0.93590 100.73793 -1.93481 -0.37366 1.28918 9.69506 5.20392 0.83646 -0.42858 -35.13843 -0.17708 -14.72497 3.52411 18.70168 -0.09422 -41.05387 -0.17285 -3.57190 16.46656 12.30717 -4.49176 1.20656 1.26185 -0.93724 12.65098 1.61853 0.06616 -44.48595 0.06143 -7.31573 -0.99043 -1.15647 0.02675 -31.87505 0.00503 -0.26725 28.07689 0.94879 -0.00275 28.95218 -0.01088 1.91250 0.87128 -6.07259 0.00300 21.28304 -0.02838 2.25449 1.22160 -4.26960 1.06251 -0.09956 0.28105 -4.75076 1.25231 -14.71874 9.91795 -0.00912 -0.00919 -111.29819 -19.13365 -8.60319 27.45705 -0.01209 0.01504 55.76146 -19.26980 -14.10997 26.10001 -0.00851 0.00461 -23.87984 32.75024 8.27409 4.87701 -1.04396 3.60802 -41.57594 -8.45725 -7.72881 2.66500 0.00000 -0.00001 -0.00000 0.00000 5.00000 2.54302 0.00000 -0.00001 -0.00000 0.00000 60.00000 9.23200 -0.30098 2.14401 -80.00000 -0.00000 0.00000 4.22502 0.00000 -0.00001 -90.00000 -0.00000 0.00000 2.65398 -0.00002 -0.00001 -69.99999 -0.00000 -0.00000 8.92000 0.00002 0.00001 -80.00000 -0.00000 0.00000 4.86300 -0.00000 -0.00002 -90.00000 -0.00000 0.00000 2.76499 0.00000 0.00000 -69.99999 -0.00000 -0.00000 8.68900 -0.12600 -2.08699 -80.00000 -0.00000 0.00000 4.53801 -0.00001 0.00000 -90.00000 -0.00000 0.00000 2.30499 -0.00002 -0.00001 -69.99999 -0.00000 -0.00000 8.39101 -0.81697 -3.75798 -80.00000 -0.00000 0.00000 3.04401 0.00000 -0.00001 -90.00000 -0.00000 0.00000 1.97500 0.00000 -0.00001 -69.99999 -0.00000 -0.00000 -0.88435 -0.49775 0.27979 27.25888 8.31537 15.66946 -9.43103 -0.01328 -0.00263 45.92867 -5.37970 -11.48754 -27.15100 -0.00031 0.01252 -15.58337 -2.53708 12.37062 -26.59211 0.00252 0.00491 54.93787 46.74703 18.98369 -4.87702 -1.04399 3.60799 -0.00000 -0.00000 -0.00000 -2.66499 0.00000 -0.00001 0.00000 -0.00000 -0.00000 -2.54300 -0.00002 0.00001 0.00000 -0.00000 -0.00000 -9.23201 -0.30100 2.14398 -0.00000 -0.00000 0.00000 -4.22499 0.00000 -0.00001 -0.00000 -0.00000 0.00000 -2.65401 -0.00002 -0.00001 -0.00000 -0.00000 0.00000 -8.92001 0.00000 -0.00002 -0.00000 -0.00000 0.00000 -4.86300 0.00000 0.00001 -0.00000 -0.00000 0.00000 -2.76501 0.00000 0.00000 -0.00000 -0.00000 0.00000 -8.68900 -0.12600 -2.08700 -0.00000 -0.00000 0.00000 -4.53800 0.00000 -0.00001 -0.00000 -0.00000 0.00000 -2.30502 0.00000 0.00002 -0.00000 -0.00000 0.00000 -8.39102 -0.81701 -3.75801 -0.00000 -0.00000 0.00000 -3.04400 0.00000 -0.00001 -0.00000 -0.00000 0.00000 -1.97500 0.00000 -0.00001 -0.00000 -0.00000 0.00000 -0.00627 0.70266 0.00002 -0.00001 0.00001 -0.00639 0.00626 6.27053 -0.00550 -2.98135 6.42399 -52.57262 
-128.45662 82.55404 -201.68268 3.25302 -0.88517 98.30277 -1.82881 -0.33634 1.43014 6.27321 7.10421 3.36363 -0.71638 -37.64486 -0.37915 -9.35877 -0.43254 18.45089 -0.17190 -39.20845 -0.32766 -3.69625 15.19548 13.47891 -4.47451 1.19326 1.40145 -1.48838 12.43729 3.22877 0.04603 -44.43998 0.04453 -7.14465 -1.19478 -0.53417 0.01843 -31.75605 0.00503 -0.11236 29.79900 0.54180 -0.00275 28.92539 -0.01088 1.87859 0.97316 -4.92324 0.00300 21.26665 -0.02838 2.24625 1.28360 -3.36273 1.06251 -0.09956 0.27524 -4.84761 1.25249 -14.44913 9.91938 -0.00912 -0.00919 -111.33057 -19.09999 -8.75309 27.45705 -0.01209 0.01504 55.21282 -19.92688 -14.08423 26.10581 -0.01908 0.00461 -24.35998 31.23369 9.40414 4.87701 -1.04396 3.60802 -41.57594 -8.45725 -7.72881 2.66500 0.00000 -0.00001 -0.00000 0.00000 5.00000 2.54302 0.00000 -0.00001 -0.00000 0.00000 60.00000 9.23200 -0.30098 2.14401 -80.00000 -0.00000 0.00000 4.22502 0.00000 -0.00001 -90.00000 -0.00000 0.00000 2.65398 -0.00002 -0.00001 -69.99999 -0.00000 -0.00000 8.92000 0.00002 0.00001 -80.00000 -0.00000 0.00000 4.86300 -0.00000 -0.00002 -90.00000 -0.00000 0.00000 2.76499 0.00000 0.00000 -69.99999 -0.00000 -0.00000 8.68900 -0.12600 -2.08699 -80.00000 -0.00000 0.00000 4.53801 -0.00001 0.00000 -90.00000 -0.00000 0.00000 2.30499 -0.00002 -0.00001 -69.99999 -0.00000 -0.00000 8.39101 -0.81697 -3.75798 -80.00000 -0.00000 0.00000 3.04401 0.00000 -0.00001 -90.00000 -0.00000 0.00000 1.97500 0.00000 -0.00001 -69.99999 -0.00000 -0.00000 -0.88435 -0.46147 0.27979 25.64691 7.78180 15.67844 -9.23283 -0.03488 0.00292 47.66349 -4.91851 -11.02230 -27.15100 -0.00031 0.01252 -15.67664 -1.71195 12.12624 -26.74998 0.00252 0.00491 53.58359 46.36403 19.37423 -4.87702 -1.04399 3.60799 -0.00000 -0.00000 -0.00000 -2.66499 0.00000 -0.00001 0.00000 -0.00000 -0.00000 -2.54300 -0.00002 0.00001 0.00000 -0.00000 -0.00000 -9.23201 -0.30100 2.14398 -0.00000 -0.00000 0.00000 -4.22499 0.00000 -0.00001 -0.00000 -0.00000 0.00000 -2.65401 -0.00002 -0.00001 -0.00000 -0.00000 0.00000 -8.92001 0.00000 -0.00002 -0.00000 -0.00000 0.00000 -4.86300 0.00000 0.00001 -0.00000 -0.00000 0.00000 -2.76501 0.00000 0.00000 -0.00000 -0.00000 0.00000 -8.68900 -0.12600 -2.08700 -0.00000 -0.00000 0.00000 -4.53800 0.00000 -0.00001 -0.00000 -0.00000 0.00000 -2.30502 0.00000 0.00002 -0.00000 -0.00000 0.00000 -8.39102 -0.81701 -3.75801 -0.00000 -0.00000 0.00000 -3.04400 0.00000 -0.00001 -0.00000 -0.00000 0.00000 -1.97500 0.00000 -0.00001 -0.00000 -0.00000 0.00000 -0.00627 0.70266 0.00002 -0.00001 0.00001 -0.00639 0.00626 6.27053 -0.00550 -2.78547 6.46067 -52.39470 
-128.44373 82.61187 -201.70311 3.14500 -0.76050 95.91679 -1.63151 -0.28507 1.58248 4.10198 7.87411 5.50732 -0.59965 -38.54806 -0.32371 -6.85504 -1.84919 18.52030 -0.14087 -38.88314 -0.24657 -2.75607 14.80137 10.47437 -4.47757 1.17789 1.53883 -2.15192 12.17415 4.78841 0.03152 -44.49687 0.03321 -6.93288 -1.28236 0.03240 0.01308 -31.67810 0.00503 -0.18224 30.44542 0.60113 -0.00275 28.89517 -0.01088 1.85277 1.10634 -3.83863 0.00300 21.26276 -0.02838 2.28575 1.36801 -2.48472 1.06251 -0.09956 0.26971 -5.02572 1.27486 -14.20872 9.90700 -0.00912 -0.00919 -111.38266 -19.18020 -9.00051 27.45705 -0.01209 0.01504 54.77161 -20.35694 -14.03505 26.11094 -0.02477 0.00461 -24.99525 30.49055 10.32048 4.87701 -1.04396 3.60802 -41.57594 -8.45725 -7.72881 2.66500 0.00000 -0.00001 -0.00000 0.00000 5.00000 2.54302 0.00000 -0.00001 -0.00000 0.00000 60.00000 9.23200 -0.30098 2.14401 -80.00000 -0.00000 0.00000 4.22502 0.00000 -0.00001 -90.00000 -0.00000 0.00000 2.65398 -0.00002 -0.00001 -69.99999 -0.00000 -0.00000 8.92000 0.00002 0.00001 -80.00000 -0.00000 0.00000 4.86300 -0.00000 -0.00002 -90.00000 -0.00000 0.00000 2.76499 0.00000 0.00000 -69.99999 -0.00000 -0.00000 8.68900 -0.12600 -2.08699 -80.00000 -0.00000 0.00000 4.53801 -0.00001 0.00000 -90.00000 -0.00000 0.00000 2.30499 -0.00002 -0.00001 -69.99999 -0.00000 -0.00000 8.39101 -0.81697 -3.75798 -80.00000 -0.00000 0.00000 3.04401 0.00000 -0.00001 -90.00000 -0.00000 0.00000 1.97500 0.00000 -0.00001 -69.99999 -0.00000 -0.00000 -0.88435 -0.42685 0.27979 24.10850 7.27652 15.67111 -9.05505 -0.04860 0.00743 49.13979 -4.55272 -10.53989 -27.15100 -0.00031 0.01252 -15.67681 -0.99515 11.93055 -26.85456 0.00252 0.00491 51.89141 45.82127 19.85005 -4.87702 -1.04399 3.60799 -0.00000 -0.00000 -0.00000 -2.66499 0.00000 -0.00001 0.00000 -0.00000 -0.00000 -2.54300 -0.00002 0.00001 0.00000 -0.00000 -0.00000 -9.23201 -0.30100 2.14398 -0.00000 -0.00000 0.00000 -4.22499 0.00000 -0.00001 -0.00000 -0.00000 0.00000 -2.65401 -0.00002 -0.00001 -0.00000 -0.00000 0.00000 -8.92001 0.00000 -0.00002 -0.00000 -0.00000 0.00000 -4.86300 0.00000 0.00001 -0.00000 -0.00000 0.00000 -2.76501 0.00000 0.00000 -0.00000 -0.00000 0.00000 -8.68900 -0.12600 -2.08700 -0.00000 -0.00000 0.00000 -4.53800 0.00000 -0.00001 -0.00000 -0.00000 0.00000 -2.30502 0.00000 0.00002 -0.00000 -0.00000 0.00000 -8.39102 -0.81701 -3.75801 -0.00000 -0.00000 0.00000 -3.04400 0.00000 -0.00001 -0.00000 -0.00000 0.00000 -1.97500 0.00000 -0.00001 -0.00000 -0.00000 0.00000 -0.00627 0.70266 0.00002 -0.00001 0.00001 -0.00639 0.00626 6.27053 -0.00550 -2.84044 6.38968 -52.11002 
-128.43373 82.66897 -201.73909 3.02227 -0.59980 93.71904 -1.45384 -0.24476 1.71031 2.25109 8.33438 7.15581 -0.48601 -39.27495 -0.27067 -4.76464 -2.98016 18.52988 -0.11837 -38.62786 -0.17849 -2.00961 14.93582 7.79561 -4.47835 1.17012 1.66156 -2.79562 11.86329 5.98348 0.02058 -44.54799 0.02447 -6.79943 -1.32226 0.69311 0.00914 -31.61965 0.00503 -0.34450 30.69440 0.85264 -0.00403 28.86497 -0.01088 1.89592 1.26950 -2.89729 0.00300 21.25200 -0.02838 2.33222 1.44116 -1.68910 1.06687 -0.10321 0.26245 -5.19923 1.27980 -13.84268 9.92657 -0.00912 -0.00919 -111.55257 -19.11192 -9.26657 27.46099 -0.01209 0.01504 54.38832 -20.68057 -13.89294 26.11763 -0.02852 0.00461 -25.20009 29.73184 10.82601 4.87701 -1.04396 3.60802 -41.57594 -8.45725 -7.72881 2.66500 0.00000 -0.00001 -0.00000 0.00000 5.00000 2.54302 0.00000 -0.00001 -0.00000 0.00000 60.00000 9.23200 -0.30098 2.14401 -80.00000 -0.00000 0.00000 4.22502 0.00000 -0.00001 -90.00000 -0.00000 0.00000 2.65398 -0.00002 -0.00001 -69.99999 -0.00000 -0.00000 8.92000 0.00002 0.00001 -80.00000 -0.00000 0.00000 4.86300 -0.00000 -0.00002 -90.00000 -0.00000 0.00000 2.76499 0.00000 0.00000 -69.99999 -0.00000 -0.00000 8.68900 -0.12600 -2.08699 -80.00000 -0.00000 0.00000 4.53801 -0.00001 0.00000 -90.00000 -0.00000 0.00000 2.30499 -0.00002 -0.00001 -69.99999 -0.00000 -0.00000 8.39101 -0.81697 -3.75798 -80.00000 -0.00000 0.00000 3.04401 0.00000 -0.00001 -90.00000 -0.00000 0.00000 1.97500 0.00000 -0.00001 -69.99999 -0.00000 -0.00000 -0.88435 -0.38906 0.27979 22.39690 6.70922 15.62259 -8.84596 -0.06186 0.01231 50.65210 -4.27420 -10.00695 -27.15100 -0.00031 0.01252 -15.60283 -0.30839 11.75230 -26.93511 0.00252 0.00491 50.13157 45.21001 20.21830 -4.87702 -1.04399 3.60799 -0.00000 -0.00000 -0.00000 -2.66499 0.00000 -0.00001 0.00000 -0.00000 -0.00000 -2.54300 -0.00002 0.00001 0.00000 -0.00000 -0.00000 -9.23201 -0.30100 2.14398 -0.00000 -0.00000 0.00000 -4.22499 0.00000 -0.00001 -0.00000 -0.00000 0.00000 -2.65401 -0.00002 -0.00001 -0.00000 -0.00000 0.00000 -8.92001 0.00000 -0.00002 -0.00000 -0.00000 0.00000 -4.86300 0.00000 0.00001 -0.00000 -0.00000 0.00000 -2.76501 0.00000 0.00000 -0.00000 -0.00000 0.00000 -8.68900 -0.12600 -2.08700 -0.00000 -0.00000 0.00000 -4.53800 0.00000 -0.00001 -0.00000 -0.00000 0.00000 -2.30502 0.00000 0.00002 -0.00000 -0.00000 0.00000 -8.39102 -0.81701 -3.75801 -0.00000 -0.00000 0.00000 -3.04400 0.00000 -0.00001 -0.00000 -0.00000 0.00000 -1.97500 0.00000 -0.00001 -0.00000 -0.00000 0.00000 -0.00627 0.70266 0.00002 -0.00001 0.00001 -0.00639 0.00626 6.27053 -0.00755 -3.13921 6.28766 -51.88819 
